<?xml version="1.0" encoding="iso-8859-1"?>
<!-- Generator: Adobe Illustrator 19.0.0, SVG Export Plug-In . SVG Version: 6.00 Build 0)  -->
<svg version="1.1" id="Layer_1" xmlns="http://www.w3.org/2000/svg" xmlns:xlink="http://www.w3.org/1999/xlink" x="0px" y="0px"
	 viewBox="0 0 301.295 301.295" style="enable-background:new 0 0 301.295 301.295;" xml:space="preserve">
<g>
	<g>
		<path d="M287.135,0H26.702c-3.959,0-7.169,3.21-7.169,7.168v31.018h-0.425c-6.681,0-12.116,5.436-12.116,12.116v47.953
			c0,6.681,5.435,12.117,12.116,12.117h0.425v81.196h-0.425c-6.681,0-12.116,5.436-12.116,12.117v47.952
			c0,6.681,5.435,12.116,12.116,12.116h0.425v30.373c0,3.959,3.21,7.169,7.169,7.169h260.433c3.959,0,7.169-3.21,7.169-7.169V7.168
			C294.303,3.21,291.094,0,287.135,0z M164.184,15.05h54.53v101.34l-21.975-24.033c-1.358-1.485-3.278-2.332-5.291-2.332
			c-2.013,0-3.932,0.847-5.29,2.332l-21.975,24.033V15.05z M31.057,249.416h-9.729v-43.511h9.729V249.416z M31.057,96.035h-9.729
			V52.524h9.729V96.035z M86.28,286.958H33.87v-23.218c6.407-0.31,11.524-5.62,11.524-12.102v-47.952
			c0-6.483-5.117-11.793-11.524-12.103v-81.225c6.407-0.31,11.524-5.62,11.524-12.103V50.303c0-6.483-5.117-11.792-11.524-12.102
			V14.338H86.28V286.958z M279.967,286.958H158.122l17.741-17.739c2.799-2.8,2.799-7.339,0-10.139c-2.8-2.799-7.338-2.799-10.138,0
			l-26.338,26.338c-0.47,0.47-0.861,0.988-1.173,1.54h-31.099l23.614-23.613c2.8-2.8,2.8-7.339,0-10.139
			c-2.8-2.799-7.338-2.8-10.138,0.001l-19.974,19.974v-31.378l24.165-24.166c2.8-2.8,2.8-7.338,0-10.138
			c-2.8-2.799-7.338-2.8-10.138,0.001l-14.028,14.027V14.338h49.231v120.516c0,2.958,1.817,5.612,4.574,6.682
			c2.757,1.071,5.889,0.338,7.885-1.846l29.143-31.873l29.143,31.873c1.996,2.184,5.128,2.916,7.885,1.846
			c2.757-1.07,4.574-3.724,4.574-6.682V14.338h46.917V286.958z"/>
	</g>
</g>
<g>
</g>
<g>
</g>
<g>
</g>
<g>
</g>
<g>
</g>
<g>
</g>
<g>
</g>
<g>
</g>
<g>
</g>
<g>
</g>
<g>
</g>
<g>
</g>
<g>
</g>
<g>
</g>
<g>
</g>
</svg>
